<svg xmlns="http://www.w3.org/2000/svg" width="32" height="32" viewBox="0 0 32 32">
    <path fill="#000" fill-opacity=".6" fill-rule="evenodd" d="M5.756 24c.412-.697.96-1.59 1.639-2.667H24.6A81.28 81.28 0 0 1 26.247 24H5.757zM7.995 9.333C7.995 8.6 8.592 8 9.328 8h13.334c.734 0 1.333.599 1.333 1.333v8c0 .736-.599 1.334-1.333 1.334H9.328a1.334 1.334 0 0 1-1.333-1.334v-8zm20.96 14.018c-.51-.919-1.332-2.251-2.505-4.074a1.419 1.419 0 0 0-.191-.226c.25-.523.403-1.1.403-1.718v-8c0-2.205-1.795-4-4-4H9.328c-2.206 0-4 1.795-4 4v8c0 .618.152 1.195.402 1.718-.071.07-.14.146-.194.234-1.156 1.816-1.966 3.146-2.481 4.062-.59 1.048-.399 1.806-.135 2.258.622 1.062 1.966 1.062 2.408 1.062h21.334c.444 0 1.794 0 2.42-1.063.264-.452.457-1.208-.127-2.253z"/>
</svg>
