<svg xmlns="http://www.w3.org/2000/svg" xmlns:xlink="http://www.w3.org/1999/xlink" width="32" height="32" viewBox="0 0 32 32">
    <defs>
        <path id="a" d="M4.667 3.333c-.737 0-1.334.632-1.334 1.412v18.51c0 .78.597 1.412 1.334 1.412h10.666c.737 0 1.334-.632 1.334-1.412V4.745c0-.78-.597-1.412-1.334-1.412H4.667zm0-2.666h10.666c2.21 0 4 1.876 4 4.19v18.286c0 2.314-1.79 4.19-4 4.19H4.667c-2.21 0-4-1.876-4-4.19V4.857c0-2.314 1.79-4.19 4-4.19zM10 22a1.333 1.333 0 1 0 0-2.667A1.333 1.333 0 0 0 10 22z"/>
    </defs>
    <use fill="#000" fill-opacity=".6" fill-rule="evenodd" transform="translate(6 2)" xlink:href="#a"/>
</svg>
