<svg xmlns="http://www.w3.org/2000/svg" width="40" height="40" viewBox="0 0 40 40">
    <g fill="#00A141" fill-rule="evenodd">
        <path d="M39 20c0 8.832-7.168 16-16 16S7 28.832 7 20 14.168 4 23 4s16 7.168 16 16" opacity=".2"/>
        <path fill-rule="nonzero" d="M7.017 27.309a1 1 0 0 1-1.742.982A16.822 16.822 0 0 1 3.104 20c0-9.332 7.565-16.896 16.896-16.896 3.2 0 6.27.891 8.927 2.548a1 1 0 1 1-1.058 1.697A14.82 14.82 0 0 0 20 5.104C11.773 5.104 5.104 11.773 5.104 20c0 2.598.665 5.097 1.913 7.309zM9.1 30.153a1 1 0 1 1-1.463 1.364l-.177-.193a1 1 0 1 1 1.484-1.34l.156.17zM34.896 20a1 1 0 0 1 2 0c0 9.332-7.564 16.896-16.896 16.896-2.71 0-5.332-.64-7.694-1.85a1 1 0 0 1 .912-1.78A14.828 14.828 0 0 0 20 34.896c8.227 0 14.896-6.67 14.896-14.896zM18.97 24.126L36.907 6.29a1 1 0 0 1 1.41 1.418L19.674 26.245a1 1 0 0 1-1.41 0l-7.97-7.924a1 1 0 0 1 1.411-1.418l7.264 7.223z"/>
    </g>
</svg>
