<?xml version="1.0" encoding="UTF-8"?>
<svg width="40px" height="40px" viewBox="0 0 40 40" version="1.1" xmlns="http://www.w3.org/2000/svg" xmlns:xlink="http://www.w3.org/1999/xlink">
    <!-- Generator: sketchtool 52.5 (67469) - http://www.bohemiancoding.com/sketch -->
    <title>21F6603F-38B0-40D4-B5FC-82ED2A531502</title>
    <desc>Created with sketchtool.</desc>
    <g id="Symbols" stroke="none" stroke-width="1" fill="none" fill-rule="evenodd">
        <g id="40px/generic-action-confirmation-check">
            <path d="M39,20 C39,28.8319714 31.8319865,36 23.0000337,36 C14.168081,36 7,28.8319714 7,20 C7,11.1680286 14.1680135,4 23.0000337,4 C31.832054,4 39,11.1680286 39,20" id="Path" fill="#73BD00" opacity="0.2"></path>
            <g id="Group-7" transform="translate(4.000000, 4.000000)" stroke="#73BD00" stroke-linecap="round" stroke-linejoin="round" stroke-width="2">
                <path d="M2.14589091,23.8000208 C0.845735065,21.4956052 0.103916883,18.8346182 0.103916883,15.9999169 C0.103916883,7.2206961 7.2208,0.103812987 16.0000208,0.103812987 C19.0830338,0.103812987 21.9609558,0.981527273 24.3977351,2.5006961" id="Stroke-1"></path>
                <path d="M4.36870649,26.8351169 C4.31270885,26.7750252 4.25716931,26.7145053 4.20209439,26.6535615" id="Stroke-3"></path>
                <path d="M31.8961039,16 C31.8961039,24.7792208 24.7792208,31.8961039 16,31.8961039 C13.3932468,31.8961039 10.9331948,31.2685714 8.76218182,30.1564675" id="Stroke-5"></path>
            </g>
            <polyline id="Path-2" stroke="#73BD00" stroke-width="2" stroke-linecap="round" stroke-linejoin="round" fill-rule="nonzero" points="11 17.6123515 18.9693003 25.5359047 37.6122231 7"></polyline>
        </g>
    </g>
</svg>