<svg xmlns="http://www.w3.org/2000/svg" width="32" height="32" viewBox="0 0 32 32">
    <path fill="#000" fill-opacity=".6" fill-rule="evenodd" d="M25.833 17.333c1.933 0 3.5 1.791 3.5 4V24c0 2.21-1.567 4-3.5 4h-9c-1.933 0-3.5-1.79-3.5-4v-2.667c0-2.209 1.567-4 3.5-4h9zm-15.166 8a1.333 1.333 0 0 1 0 2.667h-3c-.553 0-1-.597-1-1.333 0-.737.447-1.334 1-1.334h3zM25.556 20H17.11c-.614 0-1.111.597-1.111 1.333V24c0 .736.497 1.333 1.111 1.333h8.445c.613 0 1.11-.597 1.11-1.333v-2.667c0-.736-.497-1.333-1.11-1.333zm.067-16a3.695 3.695 0 0 1 3.695 3.695v6.986c0 .73-.59 1.322-1.32 1.326A1.313 1.313 0 0 1 26.68 14.7V8c0-.68-.552-1.333-1.232-1.333H6.579c-.68 0-1.231.653-1.231 1.333v10.768c0 .68.551 1.232 1.231 1.232h4.093a1.333 1.333 0 0 1 0 2.667h-4.31a3.702 3.702 0 0 1-3.695-3.703V7.695A3.695 3.695 0 0 1 6.362 4h19.26zm-4.29 17.333a1.333 1.333 0 1 1 0 2.667 1.333 1.333 0 0 1 0-2.667z"/>
</svg>
